<mxfile host="Electron" agent="Mozilla/5.0 (Macintosh; Intel Mac OS X 10_15_7) AppleWebKit/537.36 (KHTML, like Gecko) draw.io/26.2.15 Chrome/134.0.6998.205 Electron/35.2.1 Safari/537.36" version="26.2.15" pages="2">
  <diagram name="Page-1" id="rtBQ_T_5_ds06bLmIyIQ">
    <mxGraphModel dx="2233" dy="998" grid="1" gridSize="10" guides="1" tooltips="1" connect="1" arrows="1" fold="1" page="1" pageScale="1" pageWidth="850" pageHeight="1100" math="0" shadow="0">
      <root>
        <mxCell id="0" />
        <mxCell id="1" parent="0" />
        <mxCell id="Eet_hpk2ynisSjTSd44J-56" style="edgeStyle=orthogonalEdgeStyle;rounded=0;orthogonalLoop=1;jettySize=auto;html=1;entryX=0.5;entryY=1;entryDx=0;entryDy=0;" edge="1" parent="1" source="Eet_hpk2ynisSjTSd44J-1" target="Eet_hpk2ynisSjTSd44J-5">
          <mxGeometry relative="1" as="geometry" />
        </mxCell>
        <mxCell id="Eet_hpk2ynisSjTSd44J-1" value="NetworkService" style="rounded=0;whiteSpace=wrap;html=1;" vertex="1" parent="1">
          <mxGeometry x="397.5" y="850" width="120" height="60" as="geometry" />
        </mxCell>
        <mxCell id="Eet_hpk2ynisSjTSd44J-3" value="CarsFetchable" style="rounded=0;whiteSpace=wrap;html=1;dashed=1;" vertex="1" parent="1">
          <mxGeometry x="380" y="360" width="120" height="60" as="geometry" />
        </mxCell>
        <mxCell id="Eet_hpk2ynisSjTSd44J-16" value="" style="edgeStyle=orthogonalEdgeStyle;rounded=0;orthogonalLoop=1;jettySize=auto;html=1;" edge="1" parent="1" source="Eet_hpk2ynisSjTSd44J-4" target="Eet_hpk2ynisSjTSd44J-3">
          <mxGeometry relative="1" as="geometry" />
        </mxCell>
        <mxCell id="Eet_hpk2ynisSjTSd44J-33" style="edgeStyle=orthogonalEdgeStyle;rounded=0;orthogonalLoop=1;jettySize=auto;html=1;entryX=0.5;entryY=1;entryDx=0;entryDy=0;" edge="1" parent="1" source="Eet_hpk2ynisSjTSd44J-4" target="Eet_hpk2ynisSjTSd44J-32">
          <mxGeometry relative="1" as="geometry" />
        </mxCell>
        <mxCell id="Eet_hpk2ynisSjTSd44J-4" value="CarRepositoryImpl" style="rounded=0;whiteSpace=wrap;html=1;" vertex="1" parent="1">
          <mxGeometry x="380" y="460" width="120" height="60" as="geometry" />
        </mxCell>
        <mxCell id="Eet_hpk2ynisSjTSd44J-5" value="NetworkServiceInterface" style="rounded=0;whiteSpace=wrap;html=1;dashed=1;" vertex="1" parent="1">
          <mxGeometry x="380" y="760" width="155" height="60" as="geometry" />
        </mxCell>
        <mxCell id="Eet_hpk2ynisSjTSd44J-7" value="CarNetworkService" style="rounded=0;whiteSpace=wrap;html=1;" vertex="1" parent="1">
          <mxGeometry x="390" y="660" width="120" height="60" as="geometry" />
        </mxCell>
        <mxCell id="Eet_hpk2ynisSjTSd44J-8" value="CarNetworkServiceInterface" style="rounded=0;whiteSpace=wrap;html=1;dashed=1;" vertex="1" parent="1">
          <mxGeometry x="380" y="570" width="150" height="60" as="geometry" />
        </mxCell>
        <mxCell id="Eet_hpk2ynisSjTSd44J-9" value="Network" style="ellipse;shape=cloud;whiteSpace=wrap;html=1;" vertex="1" parent="1">
          <mxGeometry x="400" y="940" width="120" height="80" as="geometry" />
        </mxCell>
        <mxCell id="Eet_hpk2ynisSjTSd44J-10" style="edgeStyle=orthogonalEdgeStyle;rounded=0;orthogonalLoop=1;jettySize=auto;html=1;entryX=0.5;entryY=0.1;entryDx=0;entryDy=0;entryPerimeter=0;" edge="1" parent="1" source="Eet_hpk2ynisSjTSd44J-1" target="Eet_hpk2ynisSjTSd44J-9">
          <mxGeometry relative="1" as="geometry" />
        </mxCell>
        <mxCell id="Eet_hpk2ynisSjTSd44J-19" style="edgeStyle=orthogonalEdgeStyle;rounded=0;orthogonalLoop=1;jettySize=auto;html=1;" edge="1" parent="1" source="Eet_hpk2ynisSjTSd44J-18" target="Eet_hpk2ynisSjTSd44J-3">
          <mxGeometry relative="1" as="geometry" />
        </mxCell>
        <mxCell id="Eet_hpk2ynisSjTSd44J-22" style="edgeStyle=orthogonalEdgeStyle;rounded=0;orthogonalLoop=1;jettySize=auto;html=1;" edge="1" parent="1" source="Eet_hpk2ynisSjTSd44J-18">
          <mxGeometry relative="1" as="geometry">
            <mxPoint x="440" y="190" as="targetPoint" />
          </mxGeometry>
        </mxCell>
        <mxCell id="Eet_hpk2ynisSjTSd44J-29" style="edgeStyle=orthogonalEdgeStyle;rounded=0;orthogonalLoop=1;jettySize=auto;html=1;entryX=0;entryY=0.5;entryDx=0;entryDy=0;" edge="1" parent="1" source="Eet_hpk2ynisSjTSd44J-18" target="Eet_hpk2ynisSjTSd44J-34">
          <mxGeometry relative="1" as="geometry">
            <mxPoint x="710" y="320" as="targetPoint" />
            <Array as="points" />
          </mxGeometry>
        </mxCell>
        <mxCell id="Eet_hpk2ynisSjTSd44J-30" style="edgeStyle=orthogonalEdgeStyle;rounded=0;orthogonalLoop=1;jettySize=auto;html=1;entryX=0;entryY=0.75;entryDx=0;entryDy=0;" edge="1" parent="1" source="Eet_hpk2ynisSjTSd44J-18" target="Eet_hpk2ynisSjTSd44J-25">
          <mxGeometry relative="1" as="geometry">
            <Array as="points">
              <mxPoint x="565" y="270" />
              <mxPoint x="565" y="225" />
            </Array>
          </mxGeometry>
        </mxCell>
        <mxCell id="Eet_hpk2ynisSjTSd44J-18" value="CarListViewModel" style="rounded=0;whiteSpace=wrap;html=1;" vertex="1" parent="1">
          <mxGeometry x="380" y="260" width="120" height="60" as="geometry" />
        </mxCell>
        <mxCell id="Eet_hpk2ynisSjTSd44J-20" value="Response.DTO" style="rounded=0;whiteSpace=wrap;html=1;" vertex="1" parent="1">
          <mxGeometry x="540" y="610" width="120" height="60" as="geometry" />
        </mxCell>
        <mxCell id="Eet_hpk2ynisSjTSd44J-21" value="CarRepositoryModel" style="rounded=0;whiteSpace=wrap;html=1;" vertex="1" parent="1">
          <mxGeometry x="540" y="420" width="120" height="60" as="geometry" />
        </mxCell>
        <mxCell id="Eet_hpk2ynisSjTSd44J-23" value="CarListView" style="rounded=0;whiteSpace=wrap;html=1;" vertex="1" parent="1">
          <mxGeometry x="380" y="130" width="120" height="60" as="geometry" />
        </mxCell>
        <mxCell id="Eet_hpk2ynisSjTSd44J-24" value="CarListModel" style="rounded=0;whiteSpace=wrap;html=1;" vertex="1" parent="1">
          <mxGeometry x="730" y="140" width="120" height="60" as="geometry" />
        </mxCell>
        <mxCell id="Eet_hpk2ynisSjTSd44J-25" value="CarMapper" style="rounded=0;whiteSpace=wrap;html=1;" vertex="1" parent="1">
          <mxGeometry x="630" y="180" width="120" height="60" as="geometry" />
        </mxCell>
        <mxCell id="Eet_hpk2ynisSjTSd44J-35" style="edgeStyle=orthogonalEdgeStyle;rounded=0;orthogonalLoop=1;jettySize=auto;html=1;entryX=1;entryY=0.5;entryDx=0;entryDy=0;" edge="1" parent="1" source="Eet_hpk2ynisSjTSd44J-26" target="Eet_hpk2ynisSjTSd44J-34">
          <mxGeometry relative="1" as="geometry" />
        </mxCell>
        <mxCell id="Eet_hpk2ynisSjTSd44J-26" value="CarListLocalisationProvider" style="rounded=0;whiteSpace=wrap;html=1;" vertex="1" parent="1">
          <mxGeometry x="860" y="290" width="150" height="60" as="geometry" />
        </mxCell>
        <mxCell id="Eet_hpk2ynisSjTSd44J-32" value="CarDetailsProviding" style="rounded=0;whiteSpace=wrap;html=1;dashed=1;" vertex="1" parent="1">
          <mxGeometry x="180" y="360" width="120" height="60" as="geometry" />
        </mxCell>
        <mxCell id="Eet_hpk2ynisSjTSd44J-34" value="CarListLocalisationProviding" style="rounded=0;whiteSpace=wrap;html=1;dashed=1;" vertex="1" parent="1">
          <mxGeometry x="630" y="290" width="170" height="60" as="geometry" />
        </mxCell>
        <mxCell id="Eet_hpk2ynisSjTSd44J-36" style="edgeStyle=orthogonalEdgeStyle;rounded=0;orthogonalLoop=1;jettySize=auto;html=1;entryX=0.354;entryY=-0.052;entryDx=0;entryDy=0;entryPerimeter=0;" edge="1" parent="1" source="Eet_hpk2ynisSjTSd44J-25" target="Eet_hpk2ynisSjTSd44J-34">
          <mxGeometry relative="1" as="geometry" />
        </mxCell>
        <mxCell id="Eet_hpk2ynisSjTSd44J-47" style="edgeStyle=orthogonalEdgeStyle;rounded=0;orthogonalLoop=1;jettySize=auto;html=1;entryX=0.5;entryY=0;entryDx=0;entryDy=0;" edge="1" parent="1" source="Eet_hpk2ynisSjTSd44J-38" target="Eet_hpk2ynisSjTSd44J-32">
          <mxGeometry relative="1" as="geometry" />
        </mxCell>
        <mxCell id="Eet_hpk2ynisSjTSd44J-48" style="edgeStyle=orthogonalEdgeStyle;rounded=0;orthogonalLoop=1;jettySize=auto;html=1;entryX=0.5;entryY=1;entryDx=0;entryDy=0;" edge="1" parent="1" source="Eet_hpk2ynisSjTSd44J-38" target="Eet_hpk2ynisSjTSd44J-41">
          <mxGeometry relative="1" as="geometry" />
        </mxCell>
        <mxCell id="Eet_hpk2ynisSjTSd44J-49" style="edgeStyle=orthogonalEdgeStyle;rounded=0;orthogonalLoop=1;jettySize=auto;html=1;entryX=1;entryY=0.5;entryDx=0;entryDy=0;" edge="1" parent="1" source="Eet_hpk2ynisSjTSd44J-38" target="Eet_hpk2ynisSjTSd44J-46">
          <mxGeometry relative="1" as="geometry" />
        </mxCell>
        <mxCell id="Eet_hpk2ynisSjTSd44J-50" style="edgeStyle=orthogonalEdgeStyle;rounded=0;orthogonalLoop=1;jettySize=auto;html=1;entryX=1;entryY=0.5;entryDx=0;entryDy=0;" edge="1" parent="1" source="Eet_hpk2ynisSjTSd44J-38" target="Eet_hpk2ynisSjTSd44J-40">
          <mxGeometry relative="1" as="geometry">
            <Array as="points">
              <mxPoint x="95" y="280" />
              <mxPoint x="95" y="230" />
            </Array>
          </mxGeometry>
        </mxCell>
        <mxCell id="Eet_hpk2ynisSjTSd44J-38" value="CarDetailsViewModel" style="rounded=0;whiteSpace=wrap;html=1;" vertex="1" parent="1">
          <mxGeometry x="170" y="260" width="140" height="60" as="geometry" />
        </mxCell>
        <mxCell id="Eet_hpk2ynisSjTSd44J-41" value="CarDetailsView" style="rounded=0;whiteSpace=wrap;html=1;" vertex="1" parent="1">
          <mxGeometry x="180" y="130" width="120" height="60" as="geometry" />
        </mxCell>
        <mxCell id="Eet_hpk2ynisSjTSd44J-42" value="CarDetailsModel" style="rounded=0;whiteSpace=wrap;html=1;" vertex="1" parent="1">
          <mxGeometry x="-150" y="160" width="120" height="60" as="geometry" />
        </mxCell>
        <mxCell id="Eet_hpk2ynisSjTSd44J-52" style="edgeStyle=orthogonalEdgeStyle;rounded=0;orthogonalLoop=1;jettySize=auto;html=1;" edge="1" parent="1" source="Eet_hpk2ynisSjTSd44J-40" target="Eet_hpk2ynisSjTSd44J-46">
          <mxGeometry relative="1" as="geometry" />
        </mxCell>
        <mxCell id="Eet_hpk2ynisSjTSd44J-40" value="CarDetailsMapper" style="rounded=0;whiteSpace=wrap;html=1;" vertex="1" parent="1">
          <mxGeometry x="-100" y="200" width="120" height="60" as="geometry" />
        </mxCell>
        <mxCell id="Eet_hpk2ynisSjTSd44J-51" style="edgeStyle=orthogonalEdgeStyle;rounded=0;orthogonalLoop=1;jettySize=auto;html=1;entryX=0;entryY=0.5;entryDx=0;entryDy=0;" edge="1" parent="1" source="Eet_hpk2ynisSjTSd44J-45" target="Eet_hpk2ynisSjTSd44J-46">
          <mxGeometry relative="1" as="geometry" />
        </mxCell>
        <mxCell id="Eet_hpk2ynisSjTSd44J-45" value="CarDetailsLocalisationProvider" style="rounded=0;whiteSpace=wrap;html=1;" vertex="1" parent="1">
          <mxGeometry x="-200" y="380" width="180" height="60" as="geometry" />
        </mxCell>
        <mxCell id="Eet_hpk2ynisSjTSd44J-46" value="CarDetailsLocalisationProviding" style="rounded=0;whiteSpace=wrap;html=1;dashed=1;" vertex="1" parent="1">
          <mxGeometry x="-60" y="300" width="180" height="60" as="geometry" />
        </mxCell>
        <mxCell id="Eet_hpk2ynisSjTSd44J-57" style="edgeStyle=orthogonalEdgeStyle;rounded=0;orthogonalLoop=1;jettySize=auto;html=1;entryX=0.45;entryY=-0.034;entryDx=0;entryDy=0;entryPerimeter=0;" edge="1" parent="1" source="Eet_hpk2ynisSjTSd44J-7" target="Eet_hpk2ynisSjTSd44J-5">
          <mxGeometry relative="1" as="geometry" />
        </mxCell>
        <mxCell id="Eet_hpk2ynisSjTSd44J-58" style="edgeStyle=orthogonalEdgeStyle;rounded=0;orthogonalLoop=1;jettySize=auto;html=1;entryX=0.465;entryY=0.983;entryDx=0;entryDy=0;entryPerimeter=0;" edge="1" parent="1" source="Eet_hpk2ynisSjTSd44J-7" target="Eet_hpk2ynisSjTSd44J-8">
          <mxGeometry relative="1" as="geometry" />
        </mxCell>
        <mxCell id="Eet_hpk2ynisSjTSd44J-59" style="edgeStyle=orthogonalEdgeStyle;rounded=0;orthogonalLoop=1;jettySize=auto;html=1;entryX=0.405;entryY=-0.017;entryDx=0;entryDy=0;entryPerimeter=0;" edge="1" parent="1" source="Eet_hpk2ynisSjTSd44J-4" target="Eet_hpk2ynisSjTSd44J-8">
          <mxGeometry relative="1" as="geometry" />
        </mxCell>
      </root>
    </mxGraphModel>
  </diagram>
  <diagram id="ygt-6GXADM7SjjqTL170" name="Page-2">
    <mxGraphModel dx="1106" dy="798" grid="1" gridSize="10" guides="1" tooltips="1" connect="1" arrows="1" fold="1" page="1" pageScale="1" pageWidth="850" pageHeight="1100" math="0" shadow="0">
      <root>
        <mxCell id="0" />
        <mxCell id="1" parent="0" />
        <mxCell id="yX8_nHQmbm7v0QPlKNvl-8" style="edgeStyle=orthogonalEdgeStyle;rounded=0;orthogonalLoop=1;jettySize=auto;html=1;entryX=0;entryY=0.5;entryDx=0;entryDy=0;" edge="1" parent="1" source="yX8_nHQmbm7v0QPlKNvl-2" target="yX8_nHQmbm7v0QPlKNvl-3">
          <mxGeometry relative="1" as="geometry" />
        </mxCell>
        <mxCell id="yX8_nHQmbm7v0QPlKNvl-10" style="edgeStyle=orthogonalEdgeStyle;rounded=0;orthogonalLoop=1;jettySize=auto;html=1;entryX=0;entryY=0.5;entryDx=0;entryDy=0;" edge="1" parent="1" source="yX8_nHQmbm7v0QPlKNvl-2" target="yX8_nHQmbm7v0QPlKNvl-9">
          <mxGeometry relative="1" as="geometry">
            <Array as="points">
              <mxPoint x="400" y="220" />
              <mxPoint x="400" y="320" />
            </Array>
          </mxGeometry>
        </mxCell>
        <mxCell id="yX8_nHQmbm7v0QPlKNvl-2" value="&lt;br&gt;CarsCoordinator&lt;div&gt;&lt;br/&gt;&lt;/div&gt;" style="rounded=0;whiteSpace=wrap;html=1;" vertex="1" parent="1">
          <mxGeometry x="240" y="170" width="120" height="60" as="geometry" />
        </mxCell>
        <mxCell id="yX8_nHQmbm7v0QPlKNvl-11" style="edgeStyle=orthogonalEdgeStyle;rounded=0;orthogonalLoop=1;jettySize=auto;html=1;" edge="1" parent="1" source="yX8_nHQmbm7v0QPlKNvl-3">
          <mxGeometry relative="1" as="geometry">
            <mxPoint x="740" y="380" as="targetPoint" />
          </mxGeometry>
        </mxCell>
        <mxCell id="yX8_nHQmbm7v0QPlKNvl-3" value="&lt;p style=&quot;margin: 0px; font-variant-numeric: normal; font-variant-east-asian: normal; font-variant-alternates: normal; font-size-adjust: none; font-kerning: auto; font-optical-sizing: auto; font-feature-settings: normal; font-variation-settings: normal; font-variant-position: normal; font-variant-emoji: normal; font-stretch: normal; font-size: 18px; line-height: normal; font-family: Menlo; color: rgb(15, 104, 160); background-color: rgb(255, 255, 255); text-align: start;&quot; class=&quot;p1&quot;&gt;navigationController&lt;/p&gt;" style="rounded=0;whiteSpace=wrap;html=1;" vertex="1" parent="1">
          <mxGeometry x="460" y="170" width="230" height="60" as="geometry" />
        </mxCell>
        <mxCell id="yX8_nHQmbm7v0QPlKNvl-6" style="edgeStyle=orthogonalEdgeStyle;rounded=0;orthogonalLoop=1;jettySize=auto;html=1;entryX=0;entryY=0.5;entryDx=0;entryDy=0;" edge="1" parent="1" source="yX8_nHQmbm7v0QPlKNvl-4" target="yX8_nHQmbm7v0QPlKNvl-5">
          <mxGeometry relative="1" as="geometry" />
        </mxCell>
        <mxCell id="yX8_nHQmbm7v0QPlKNvl-7" style="edgeStyle=orthogonalEdgeStyle;rounded=0;orthogonalLoop=1;jettySize=auto;html=1;entryX=0;entryY=0.5;entryDx=0;entryDy=0;" edge="1" parent="1" source="yX8_nHQmbm7v0QPlKNvl-4" target="yX8_nHQmbm7v0QPlKNvl-2">
          <mxGeometry relative="1" as="geometry" />
        </mxCell>
        <mxCell id="yX8_nHQmbm7v0QPlKNvl-4" value="&lt;p style=&quot;margin: 0px; font-variant-numeric: normal; font-variant-east-asian: normal; font-variant-alternates: normal; font-size-adjust: none; font-kerning: auto; font-optical-sizing: auto; font-feature-settings: normal; font-variation-settings: normal; font-variant-position: normal; font-variant-emoji: normal; font-stretch: normal; font-size: 18px; line-height: normal; font-family: Menlo; color: rgb(11, 79, 121); background-color: rgb(255, 255, 255); text-align: start;&quot; class=&quot;p1&quot;&gt;Launcher&lt;/p&gt;" style="rounded=0;whiteSpace=wrap;html=1;" vertex="1" parent="1">
          <mxGeometry x="60" y="170" width="120" height="60" as="geometry" />
        </mxCell>
        <mxCell id="yX8_nHQmbm7v0QPlKNvl-5" value="Window" style="rounded=0;whiteSpace=wrap;html=1;" vertex="1" parent="1">
          <mxGeometry x="250" y="20" width="120" height="60" as="geometry" />
        </mxCell>
        <mxCell id="yX8_nHQmbm7v0QPlKNvl-18" style="edgeStyle=orthogonalEdgeStyle;rounded=0;orthogonalLoop=1;jettySize=auto;html=1;entryX=0.75;entryY=0;entryDx=0;entryDy=0;" edge="1" parent="1" source="yX8_nHQmbm7v0QPlKNvl-9" target="yX8_nHQmbm7v0QPlKNvl-17">
          <mxGeometry relative="1" as="geometry" />
        </mxCell>
        <mxCell id="yX8_nHQmbm7v0QPlKNvl-9" value="&lt;p style=&quot;margin: 0px; font-variant-numeric: normal; font-variant-east-asian: normal; font-variant-alternates: normal; font-size-adjust: none; font-kerning: auto; font-optical-sizing: auto; font-feature-settings: normal; font-variation-settings: normal; font-variant-position: normal; font-variant-emoji: normal; font-stretch: normal; font-size: 18px; line-height: normal; font-family: Menlo; color: rgb(28, 70, 74); background-color: rgb(255, 255, 255); text-align: start;&quot; class=&quot;p1&quot;&gt;FeaturesFactory&lt;/p&gt;" style="rounded=0;whiteSpace=wrap;html=1;" vertex="1" parent="1">
          <mxGeometry x="440" y="290" width="180" height="60" as="geometry" />
        </mxCell>
        <mxCell id="yX8_nHQmbm7v0QPlKNvl-14" style="edgeStyle=orthogonalEdgeStyle;rounded=0;orthogonalLoop=1;jettySize=auto;html=1;" edge="1" parent="1" source="yX8_nHQmbm7v0QPlKNvl-12" target="yX8_nHQmbm7v0QPlKNvl-13">
          <mxGeometry relative="1" as="geometry" />
        </mxCell>
        <mxCell id="yX8_nHQmbm7v0QPlKNvl-12" value="&lt;p style=&quot;margin: 0px; font-variant-numeric: normal; font-variant-east-asian: normal; font-variant-alternates: normal; font-size-adjust: none; font-kerning: auto; font-optical-sizing: auto; font-feature-settings: normal; font-variation-settings: normal; font-variant-position: normal; font-variant-emoji: normal; font-stretch: normal; font-size: 18px; line-height: normal; font-family: Menlo; color: rgb(57, 0, 160); background-color: rgb(255, 255, 255); text-align: start;&quot; class=&quot;p1&quot;&gt;UIHostingController&lt;/p&gt;" style="rounded=0;whiteSpace=wrap;html=1;" vertex="1" parent="1">
          <mxGeometry x="660" y="380" width="230" height="60" as="geometry" />
        </mxCell>
        <mxCell id="yX8_nHQmbm7v0QPlKNvl-16" style="edgeStyle=orthogonalEdgeStyle;rounded=0;orthogonalLoop=1;jettySize=auto;html=1;" edge="1" parent="1" source="yX8_nHQmbm7v0QPlKNvl-13" target="yX8_nHQmbm7v0QPlKNvl-15">
          <mxGeometry relative="1" as="geometry" />
        </mxCell>
        <mxCell id="yX8_nHQmbm7v0QPlKNvl-13" value="&lt;p style=&quot;margin: 0px; font-variant-numeric: normal; font-variant-east-asian: normal; font-variant-alternates: normal; font-size-adjust: none; font-kerning: auto; font-optical-sizing: auto; font-feature-settings: normal; font-variation-settings: normal; font-variant-position: normal; font-variant-emoji: normal; font-stretch: normal; font-size: 18px; line-height: normal; font-family: Menlo; color: rgb(28, 70, 74); background-color: rgb(255, 255, 255); text-align: start;&quot; class=&quot;p1&quot;&gt;CarListView&lt;/p&gt;" style="rounded=0;whiteSpace=wrap;html=1;" vertex="1" parent="1">
          <mxGeometry x="660" y="470" width="190" height="60" as="geometry" />
        </mxCell>
        <mxCell id="yX8_nHQmbm7v0QPlKNvl-20" style="edgeStyle=orthogonalEdgeStyle;rounded=0;orthogonalLoop=1;jettySize=auto;html=1;entryX=1;entryY=0.5;entryDx=0;entryDy=0;" edge="1" parent="1" source="yX8_nHQmbm7v0QPlKNvl-15" target="yX8_nHQmbm7v0QPlKNvl-17">
          <mxGeometry relative="1" as="geometry" />
        </mxCell>
        <mxCell id="yX8_nHQmbm7v0QPlKNvl-15" value="&lt;p style=&quot;margin: 0px; font-variant-numeric: normal; font-variant-east-asian: normal; font-variant-alternates: normal; font-size-adjust: none; font-kerning: auto; font-optical-sizing: auto; font-feature-settings: normal; font-variation-settings: normal; font-variant-position: normal; font-variant-emoji: normal; font-stretch: normal; font-size: 18px; line-height: normal; font-family: Menlo; color: rgb(50, 109, 116); background-color: rgb(255, 255, 255); text-align: start;&quot; class=&quot;p1&quot;&gt;CarListViewModel&lt;/p&gt;" style="rounded=0;whiteSpace=wrap;html=1;" vertex="1" parent="1">
          <mxGeometry x="660" y="580" width="210" height="60" as="geometry" />
        </mxCell>
        <mxCell id="yX8_nHQmbm7v0QPlKNvl-17" value="Engine" style="rounded=0;whiteSpace=wrap;html=1;" vertex="1" parent="1">
          <mxGeometry x="440" y="400" width="120" height="60" as="geometry" />
        </mxCell>
      </root>
    </mxGraphModel>
  </diagram>
</mxfile>
